<svg width="539" height="522" viewBox="0 0 539 522" fill="none" xmlns="http://www.w3.org/2000/svg">
<rect x="10" y="10" width="519" height="502" rx="20" fill="#D64E24" stroke="#DC962C" stroke-width="20"/>
<path d="M284.353 156.836C275.665 148.148 310.417 122.085 362.544 104.709C362.544 52.5824 397.295 43.8947 397.295 96.0216C440.734 104.71 458.11 113.397 466.797 122.085C473.695 128.982 449.422 156.836 432.046 130.773C425.588 121.086 413.677 117.518 399.853 117.718C386.514 117.911 371.394 121.611 357.677 126.707C340.6 133.051 325.697 141.556 319.104 148.148C313.313 151.044 310.417 191.587 284.353 156.836Z" fill="#DC962C"/>
<path d="M336.48 191.588C325.638 197.009 298.716 201.627 298.716 250.279C298.716 267.654 326.055 264.179 319.104 250.279C310.417 232.903 329.918 212.244 336.48 208.963C353.856 200.276 407.817 192.505 423.358 200.276C440.734 208.963 449.422 226.339 440.734 235.027C434.942 240.819 427.702 243.715 440.734 252.402C449.422 258.194 466.797 266.303 466.797 252.402C458.11 226.339 456.275 190.671 440.734 182.9C434.71 179.888 422.42 178.964 408.208 179.405C391.685 179.918 372.565 182.275 357.677 185.339C348.437 187.241 340.827 189.414 336.48 191.588Z" fill="#DC962C"/>
<path fill-rule="evenodd" clip-rule="evenodd" d="M376.237 255.382C377.024 255.331 377.733 255.286 378.347 255.256C380.7 255.139 383.638 255.319 386.982 255.524C393.068 255.897 400.5 256.352 408.208 255.256C420.153 253.557 418.162 230.371 413.185 220.417C408.208 210.463 384.914 218.826 383.324 220.417C381.733 222.008 370.032 222.056 368.393 220.417C365.853 217.877 346.566 214.693 343.508 225.394C334.168 258.084 364.265 256.151 376.237 255.382ZM363.416 237.686C361.757 234.368 380.513 230.212 387.539 232.554C392.515 234.213 391.52 241.165 387.539 245.147C380.903 248.465 367.398 245.649 363.416 237.686Z" fill="#DC962C"/>
<path fill-rule="evenodd" clip-rule="evenodd" d="M357.677 126.707C354.105 139.587 349.104 169.345 357.677 185.339C372.565 182.275 391.685 179.918 408.208 179.405C414.893 162.709 405.423 131.324 399.853 117.718C386.514 117.911 371.394 121.611 357.677 126.707ZM362.469 140.631C360.784 138.947 360.995 136.588 362.654 133.27C367.631 128.293 394.876 128.293 394.876 128.293C394.876 128.293 399.668 132.079 399.668 135.654C399.668 140.631 367.446 145.608 362.469 140.631ZM361.363 156.89C360.968 156.504 360.81 153.903 362.469 150.585C367.446 145.608 397.295 145.608 397.295 145.608C397.295 145.608 401.165 148.338 401.165 151.914C401.165 156.89 365.086 160.539 361.363 156.89ZM362.654 175.47C360.969 173.785 361.757 173.811 363.416 170.493C368.393 165.516 400.615 165.516 400.615 165.516C400.615 165.516 406.682 166.586 404.83 170.493C402.469 175.47 367.631 180.447 362.654 175.47Z" fill="#DC962C"/>
<path d="M202.49 65.3055C199.328 57.4025 174.987 54.8736 102.912 107.981C88.687 117.465 98.1705 131.69 107.654 122.207C110.516 119.345 154.361 89.3696 164.555 84.2724C174.039 79.5306 197.748 79.5306 193.006 89.0142C188.264 98.4977 166.895 103.921 146.863 119.168C140.846 103.239 117.138 98.4977 134.237 128.914C104.84 151.947 88.687 155.399 83.9452 179.108C83.9452 193.333 102.912 193.333 102.912 179.108C102.912 155.399 202.489 117.465 211.973 98.4977C216.715 89.0142 211.973 79.5306 202.49 65.3055Z" fill="#DC962C"/>
<path d="M230.94 126.512C227.779 118.609 203.438 116.08 131.363 169.188C117.138 178.671 126.621 192.897 136.105 183.413C138.967 180.551 182.811 150.576 193.006 145.479C202.489 140.737 226.198 140.737 221.456 150.221C216.715 159.704 195.346 165.128 175.313 180.375C169.297 164.446 145.588 159.704 162.688 190.121C133.29 213.153 107.654 231.267 102.912 254.976C102.912 269.201 126.077 280.164 121.879 254.976C117.138 226.525 230.94 178.671 240.423 159.704C245.165 150.221 240.423 140.737 230.94 126.512Z" fill="#DC962C"/>
<path fill-rule="evenodd" clip-rule="evenodd" d="M294.399 409.495C284.97 388.28 293.011 339.124 315.197 321.791C337.382 304.457 439.212 291.889 460.878 319.621C470.071 331.386 485.157 405.477 438.261 422.144C417.289 429.598 306.186 436.014 294.399 409.495ZM370.141 323.523C382.758 323.668 369.615 348.47 366.502 353.162C360.349 362.435 335.043 364.342 315.284 361.916C310.344 361.31 325.076 323.004 370.141 323.523ZM391.201 356.195C385.72 349.179 383.668 322.393 390.507 321.009C421.359 314.769 447.966 343.107 446.753 352.987C445.54 362.867 395.535 361.741 391.201 356.195ZM383.835 375.348C378.289 379.681 381.566 410.169 389.469 411.14C399.349 412.353 440.081 407.325 449.266 373.353C450.719 367.981 389.382 371.014 383.835 375.348ZM320.311 402.648C308.941 397.24 311.739 382.55 318.404 377.342C323.951 373.009 365.345 374.546 368.409 378.468C372.743 384.014 370.316 403.774 364.77 408.107C359.224 412.44 334.524 409.408 320.311 402.648Z" fill="#DC962C"/>
<path d="M157.351 279.675C146.532 279.297 148.02 288.375 147.706 297.391C129.675 296.761 102.314 304.832 93.1409 309.025C80.1686 314.954 81.7643 376.325 80.9773 398.864C80.1902 421.402 62.1594 420.773 62.002 425.281C61.8446 429.788 63.5577 447.843 84.2257 435.083C98.0636 426.54 96.2319 349.751 101.369 331.878C106.507 314.005 133.71 310.441 174.28 311.858C214.849 313.275 195.087 362.23 202.685 403.114C210.284 443.998 232.98 440.278 251.011 440.907C269.041 441.537 267.851 415.121 242.625 422.562C228.944 426.597 207.624 375.894 214.062 335.813C219.829 299.909 183.977 292.64 165.894 293.513C164.496 290.455 168.169 280.052 157.351 279.675Z" fill="#DC962C"/>
<path fill-rule="evenodd" clip-rule="evenodd" d="M177.213 357.093C169.837 363.971 136.172 369.199 118.298 364.062C112.148 362.294 112.418 358.283 113.446 351.44C113.711 349.675 111.121 349.681 108.401 349.688C105.911 349.694 103.313 349.701 102.695 348.35C100.419 343.37 106.328 342.397 110.382 341.73C112.302 341.414 113.805 341.166 113.825 340.594C115.703 335.077 118.758 329.468 119.527 328.056L119.557 328C122.538 322.525 130.503 322.397 141.511 322.219C148.315 322.109 156.28 321.98 164.949 320.559C177.637 318.479 178.809 323.049 179.765 326.779C180.52 329.721 181.14 332.141 187.173 330.361C194.655 328.154 195.874 339.691 186.701 343.884C184.525 344.879 183.3 347.311 181.934 350.024C180.724 352.427 179.404 355.05 177.213 357.093ZM141.223 333.407C141.282 331.738 120.169 329.957 121.959 340.878C122.3 342.957 140.951 341.213 141.034 338.829L141.223 333.407ZM138.039 346.869C135.945 344.624 126.289 346.459 121.675 349.012C118.175 350.95 125.91 357.305 129.525 357.431C132.237 357.526 138.221 357.192 140.466 355.098C143.272 352.481 140.655 349.675 138.039 346.869ZM151.69 344.631C150.435 348.207 148.602 355.382 151.312 355.477C154.699 355.595 175.999 348.195 173.204 342.668C172.235 340.753 157.49 342.055 151.69 344.631ZM168.433 331.642C165.816 328.836 154.97 328.457 152.164 331.074C151.729 331.479 149.263 336.402 151.975 336.497C152.69 336.522 153.889 336.605 155.339 336.706C159.385 336.987 165.382 337.404 168.243 337.065C172.13 336.604 170.266 333.609 168.433 331.642Z" fill="#DC962C"/>
<path fill-rule="evenodd" clip-rule="evenodd" d="M113.838 378.601C108.751 394.712 103.552 424.007 118.929 427.644C121.851 428.336 125.747 427.214 131.064 425.682L132.587 425.245C130.462 434.274 128.273 445.329 111.03 447.376C103.922 448.22 110.509 462.298 131.634 452.521C135.479 450.742 136.647 444.261 138.333 437.53C139.562 432.624 140.898 427.287 143.214 422.591C145.142 422.323 150.085 421.703 154.441 421.359C153.158 432.174 158.749 453.468 172.306 453.941C193.998 454.699 191.858 443.765 172.685 443.095C167.262 442.906 165.505 429.271 165.803 420.749C168.697 420.849 171.748 421.075 174.965 421.457C193.851 424.831 188.663 379.132 173.774 372.55C167.107 369.602 114.217 367.755 113.838 378.601ZM128.673 381.834C133.163 377.647 152.362 377.232 161.4 377.547C163.569 377.623 167.664 379.576 169.44 380.543C171.836 381.847 119.512 390.377 123.061 387.067L128.673 381.834ZM122.777 395.202C121.174 396.697 121.077 398.924 125.415 399.075C127.449 399.146 177.282 394.579 174.484 391.578L171.867 388.772C169.594 385.231 125.583 392.585 122.777 395.202ZM124.731 416.988C120.393 416.836 121.305 411.439 122.304 408.759C125.204 403.431 168.777 399.523 174.173 400.479C180.389 401.58 176.902 409.513 171.083 411.23C162.854 413.657 133.984 417.311 124.731 416.988Z" fill="#DC962C"/>
</svg>
